<?xml version="1.0" encoding="utf-8"?>
<!-- Generator: Adobe Illustrator 18.1.0, SVG Export Plug-In . SVG Version: 6.00 Build 0)  -->
<svg version="1.1" id="Layer_1" xmlns="http://www.w3.org/2000/svg" xmlns:xlink="http://www.w3.org/1999/xlink" x="0px" y="0px"
	 viewBox="0 0 2000 2000" enable-background="new 0 0 2000 2000" xml:space="preserve">
<g>
	<path fill="#E5A475" d="M1002.3,1061.6c13.5-32.7,56-11.6,56-11.6c11.1,3.9,25.4,8.4,41.7,13.2c110.2-56.5,267.9-115.3,293.7-120.4
		c40-7.9,112-63.5,92.2-111.5c-19.8-48-82.2-17.1-82.2-17.1c-108.8,38-417.3,115.3-510.9,135.8c-93.5,20.4-533.4-295.7-616.3-358.3
		c-82.9-62.6-127.9,35.5-104,51.6c23.9,16.1,402.4,304.8,520.3,397.9c25.9,20.5,42,61,51.7,112.4c65.1-18.3,132.8-38.5,171.6-52
		c0,0,42.8-21.2,56.3,11.7c13.6,32.9-35.8,71.1-63.2,76.4c-15.5,3-90.4,33.5-153.6,66.5c9,180-20.7,406-4.3,441.7
		c25.4,55.2,82.2,17,82.2,17l38.4-501.5c0,0,4.2,422.6,16,482.5c11.8,60,94.2,25.1,94.2,25.1s1.7-519.2,9.1-576.7
		c1.2-9.3,11.7-20.8,28.4-33.4C1004.9,1096.6,995.3,1078.4,1002.3,1061.6z"/>
	<path fill="#E5A475" d="M803.4,791.4c0,47.3,38.4,85.6,85.7,85.6c47.3,0,85.6-38.3,85.6-85.6c0-47.3-38.3-85.6-85.6-85.6
		C841.8,705.7,803.4,744.1,803.4,791.4z"/>
	<path fill="#A0D971" d="M972.4,1113.3c-13.5-32.9-56.3-11.7-56.3-11.7c-38.8,13.5-106.5,33.7-171.6,52
		c-60,16.8-117.8,32-148.6,38.8c-64.1,14-365.6-202.7-422.4-245.5c-56.8-42.9-87.7,24.3-71.3,35.3c16.4,11,275.8,208.9,356.6,272.7
		c80.8,63.8,22.7,412.3,40.2,450.1c17.4,37.8,56.3,11.7,56.3,11.7l26.3-343.7c0,0,2.9,289.6,11,330.7c8.1,41.1,64.5,17.2,64.5,17.2
		s1.1-355.8,6.2-395.2c2.2-17.1,43.8-44,92.3-69.4c63.1-33,138.1-63.5,153.6-66.5C936.6,1184.4,986,1146.2,972.4,1113.3z"/>
	<path fill="#A0D971" d="M652.1,1083.7c0-32.4-26.3-58.7-58.7-58.7c-32.4,0-58.7,26.3-58.7,58.7c0,32.4,26.3,58.7,58.7,58.7
		C625.8,1142.3,652.1,1116.1,652.1,1083.7z"/>
	<path fill="#3FBCE5" d="M1826.7,898.3c-56.5,42.7-356.4,258.2-420.1,244.2c-54.2-11.8-214.3-51.7-306.6-79.3
		c-16.3-4.9-30.6-9.4-41.7-13.2c0,0-42.5-21.1-56,11.6c-7,16.8,2.7,35,17.4,49.5c13.9,13.7,32.2,24,45.5,26.6
		c27.3,5.3,269.4,98.2,274.4,137.4c5,39.2,6.2,393.2,6.2,393.2s56.2,23.8,64.2-17.1c8.1-40.9,10.9-329,10.9-329l26.2,341.9
		c0,0,38.7,26,56.1-11.6c17.3-37.6-40.4-384.4,39.9-447.8c80.4-63.4,338.5-260.3,354.7-271.3
		C1913.9,922.5,1883.3,855.6,1826.7,898.3z"/>
	<path fill="#3FBCE5" d="M1409.1,975.9c-32.2,0-58.4,26.2-58.4,58.4c0,32.3,26.2,58.4,58.4,58.4c32.2,0,58.4-26.1,58.4-58.4
		C1467.5,1002.1,1441.4,975.9,1409.1,975.9z"/>
	<polygon fill="#A0D971" points="1126.6,483.9 1722.2,880.9 1823.4,814.7 1114.9,339.8 921,464 1041.9,541.1 	"/>
	<polygon fill="#3FBCE5" points="671.1,460.5 1243.4,799.2 1379.6,756.4 1041.9,541.1 921,464 671.1,304.8 305.2,557.8 422,639.6 	
		"/>
</g>
</svg>
